<svg width="1000" height="420" viewBox="0 0 1000 420" xmlns="http://www.w3.org/2000/svg"> <rect width="1000" height="420" rx="24" fill="#0f172a"/> <text x="500" y="45" text-anchor="middle" fill="#ffffff" font-size="26" font-family="Arial">Engineering Architecture Map</text> <rect x="70" y="100" width="180" height="70" rx="14" fill="#1d4ed8"/> <text x="160" y="142" text-anchor="middle" fill="#ffffff" font-size="16" font-family="Arial">API Gateway</text> <rect x="310" y="100" width="180" height="70" rx="14" fill="#7c3aed"/> <text x="400" y="142" text-anchor="middle" fill="#ffffff" font-size="16" font-family="Arial">Application Layer</text> <rect x="550" y="100" width="180" height="70" rx="14" fill="#059669"/> <text x="640" y="142" text-anchor="middle" fill="#ffffff" font-size="16" font-family="Arial">Domain Rules</text> <rect x="790" y="100" width="150" height="70" rx="14" fill="#ea580c"/> <text x="865" y="142" text-anchor="middle" fill="#ffffff" font-size="16" font-family="Arial">Adapters</text> <rect x="190" y="250" width="170" height="70" rx="14" fill="#334155"/> <text x="275" y="292" text-anchor="middle" fill="#ffffff" font-size="16" font-family="Arial">Database</text> <rect x="420" y="250" width="170" height="70" rx="14" fill="#334155"/> <text x="505" y="292" text-anchor="middle" fill="#ffffff" font-size="16" font-family="Arial">Queues / Events</text> <rect x="650" y="250" width="170" height="70" rx="14" fill="#334155"/> <text x="735" y="292" text-anchor="middle" fill="#ffffff" font-size="16" font-family="Arial">Cloud Services</text> <line x1="250" y1="135" x2="310" y2="135" stroke="#94a3b8" stroke-width="4"/> <line x1="490" y1="135" x2="550" y2="135" stroke="#94a3b8" stroke-width="4"/> <line x1="730" y1="135" x2="790" y2="135" stroke="#94a3b8" stroke-width="4"/> <line x1="865" y1="170" x2="275" y2="250" stroke="#94a3b8" stroke-width="3"/> <line x1="865" y1="170" x2="505" y2="250" stroke="#94a3b8" stroke-width="3"/> <line x1="865" y1="170" x2="735" y2="250" stroke="#94a3b8" stroke-width="3"/> </svg>
